<svg xmlns="http://www.w3.org/2000/svg" xmlns:xlink="http://www.w3.org/1999/xlink" width="500" zoomAndPan="magnify" viewBox="0 0 375 374.999991" height="500" preserveAspectRatio="xMidYMid meet" version="1.0"><defs><g/><clipPath id="9467345340"><path d="M 131 99.507812 L 165 99.507812 L 165 133 L 131 133 Z M 131 99.507812 " clip-rule="nonzero"/></clipPath></defs><path fill="#ffffff" d="M 182.839844 127.816406 C 181.402344 127.816406 180.054688 127.554688 178.804688 127.03125 C 177.574219 126.511719 176.492188 125.792969 175.558594 124.875 C 174.625 123.941406 173.894531 122.859375 173.375 121.628906 C 172.871094 120.378906 172.617188 119.042969 172.617188 117.625 C 172.617188 116.207031 172.871094 114.890625 173.375 113.675781 C 173.894531 112.445312 174.613281 111.371094 175.53125 110.457031 C 176.464844 109.523438 177.546875 108.804688 178.777344 108.300781 C 180.011719 107.777344 181.34375 107.515625 182.78125 107.515625 C 184.21875 107.515625 185.554688 107.777344 186.785156 108.300781 C 188.019531 108.804688 189.101562 109.523438 190.035156 110.457031 C 190.96875 111.371094 191.6875 112.445312 192.191406 113.675781 C 192.714844 114.90625 192.976562 116.234375 192.976562 117.652344 C 192.976562 119.070312 192.714844 120.394531 192.191406 121.628906 C 191.6875 122.859375 190.96875 123.941406 190.035156 124.875 C 189.121094 125.792969 188.046875 126.511719 186.8125 127.03125 C 185.582031 127.554688 184.257812 127.816406 182.839844 127.816406 Z M 191.714844 128.964844 L 182.699219 119.949219 L 184.992188 117.625 L 194.039062 126.667969 Z M 182.78125 124.261719 C 184.03125 124.261719 185.125 123.980469 186.058594 123.421875 C 187.011719 122.859375 187.746094 122.085938 188.269531 121.097656 C 188.8125 120.105469 189.082031 118.949219 189.082031 117.625 C 189.082031 116.652344 188.921875 115.765625 188.605469 114.964844 C 188.308594 114.160156 187.878906 113.46875 187.316406 112.890625 C 186.757812 112.292969 186.09375 111.835938 185.332031 111.519531 C 184.566406 111.203125 183.714844 111.042969 182.78125 111.042969 C 181.550781 111.042969 180.457031 111.324219 179.503906 111.882812 C 178.574219 112.425781 177.835938 113.191406 177.292969 114.179688 C 176.769531 115.167969 176.507812 116.316406 176.507812 117.625 C 176.507812 118.613281 176.660156 119.519531 176.957031 120.339844 C 177.273438 121.160156 177.703125 121.863281 178.246094 122.441406 C 178.804688 123.019531 179.46875 123.46875 180.234375 123.785156 C 181.019531 124.101562 181.867188 124.261719 182.78125 124.261719 Z M 201.945312 127.789062 C 200.75 127.789062 199.683594 127.535156 198.75 127.03125 C 197.835938 126.527344 197.117188 125.828125 196.59375 124.933594 C 196.074219 124.035156 195.8125 123 195.8125 121.824219 L 195.8125 113.984375 L 199.507812 113.984375 L 199.507812 121.738281 C 199.507812 122.300781 199.601562 122.785156 199.789062 123.195312 C 199.972656 123.589844 200.253906 123.886719 200.628906 124.09375 C 201 124.296875 201.441406 124.398438 201.945312 124.398438 C 202.710938 124.398438 203.308594 124.167969 203.734375 123.699219 C 204.164062 123.234375 204.378906 122.582031 204.378906 121.738281 L 204.378906 113.984375 L 208.046875 113.984375 L 208.046875 121.824219 C 208.046875 123.019531 207.785156 124.0625 207.265625 124.960938 C 206.761719 125.855469 206.042969 126.554688 205.109375 127.058594 C 204.195312 127.546875 203.140625 127.789062 201.945312 127.789062 Z M 210.96875 127.507812 L 210.96875 113.984375 L 214.664062 113.984375 L 214.664062 127.507812 Z M 212.816406 111.800781 C 212.21875 111.800781 211.726562 111.601562 211.332031 111.210938 C 210.941406 110.800781 210.746094 110.296875 210.746094 109.699219 C 210.746094 109.121094 210.941406 108.625 211.332031 108.214844 C 211.726562 107.804688 212.21875 107.597656 212.816406 107.597656 C 213.433594 107.597656 213.929688 107.804688 214.300781 108.214844 C 214.695312 108.625 214.890625 109.121094 214.890625 109.699219 C 214.890625 110.296875 214.695312 110.800781 214.300781 111.210938 C 213.929688 111.601562 213.433594 111.800781 212.816406 111.800781 Z M 224.300781 127.789062 C 222.917969 127.789062 221.675781 127.480469 220.574219 126.863281 C 219.472656 126.25 218.605469 125.410156 217.972656 124.34375 C 217.335938 123.28125 217.019531 122.085938 217.019531 120.761719 C 217.019531 119.414062 217.335938 118.210938 217.972656 117.148438 C 218.605469 116.082031 219.472656 115.242188 220.574219 114.628906 C 221.695312 113.992188 222.9375 113.675781 224.300781 113.675781 C 225.363281 113.675781 226.34375 113.871094 227.238281 114.261719 C 228.136719 114.65625 228.910156 115.214844 229.5625 115.945312 L 227.210938 118.324219 C 226.855469 117.933594 226.429688 117.632812 225.925781 117.429688 C 225.4375 117.222656 224.898438 117.121094 224.300781 117.121094 C 223.628906 117.121094 223.019531 117.277344 222.480469 117.597656 C 221.957031 117.894531 221.535156 118.316406 221.21875 118.855469 C 220.921875 119.378906 220.773438 120.003906 220.773438 120.730469 C 220.773438 121.441406 220.921875 122.078125 221.21875 122.636719 C 221.535156 123.175781 221.957031 123.605469 222.480469 123.925781 C 223.019531 124.222656 223.628906 124.371094 224.300781 124.371094 C 224.914062 124.371094 225.464844 124.269531 225.953125 124.0625 C 226.457031 123.839844 226.886719 123.523438 227.238281 123.113281 L 229.621094 125.492188 C 228.929688 126.238281 228.136719 126.808594 227.238281 127.199219 C 226.34375 127.59375 225.363281 127.789062 224.300781 127.789062 Z M 240.320312 127.507812 L 235.085938 120.535156 L 240.292969 113.984375 L 244.523438 113.984375 L 238.417969 121.375 L 238.558594 119.585938 L 244.800781 127.507812 Z M 231.699219 127.507812 L 231.699219 107.261719 L 235.367188 107.261719 L 235.367188 127.507812 Z M 253.996094 127.789062 C 253.023438 127.789062 252.148438 127.582031 251.363281 127.171875 C 250.578125 126.761719 249.953125 126.203125 249.488281 125.492188 C 249.019531 124.78125 248.769531 123.988281 248.730469 123.113281 L 248.730469 118.296875 C 248.769531 117.417969 249.019531 116.632812 249.488281 115.945312 C 249.972656 115.234375 250.609375 114.683594 251.390625 114.292969 C 252.175781 113.898438 253.042969 113.703125 253.996094 113.703125 C 255.246094 113.703125 256.367188 114.011719 257.355469 114.628906 C 258.34375 115.242188 259.121094 116.082031 259.679688 117.148438 C 260.257812 118.210938 260.546875 119.414062 260.546875 120.761719 C 260.546875 122.085938 260.257812 123.28125 259.679688 124.34375 C 259.121094 125.410156 258.34375 126.25 257.355469 126.863281 C 256.367188 127.480469 255.246094 127.789062 253.996094 127.789062 Z M 246.492188 127.507812 L 246.492188 107.261719 L 250.160156 107.261719 L 250.160156 117.316406 L 249.542969 120.5625 L 250.132812 123.867188 L 250.132812 127.507812 Z M 253.378906 124.398438 C 254.050781 124.398438 254.640625 124.25 255.144531 123.953125 C 255.667969 123.636719 256.066406 123.207031 256.347656 122.664062 C 256.648438 122.105469 256.796875 121.460938 256.796875 120.730469 C 256.796875 120.023438 256.648438 119.398438 256.347656 118.855469 C 256.066406 118.296875 255.667969 117.867188 255.144531 117.566406 C 254.621094 117.25 254.023438 117.09375 253.351562 117.09375 C 252.679688 117.09375 252.082031 117.25 251.558594 117.566406 C 251.054688 117.867188 250.65625 118.296875 250.355469 118.855469 C 250.074219 119.398438 249.9375 120.023438 249.9375 120.730469 C 249.9375 121.460938 250.074219 122.105469 250.355469 122.664062 C 250.65625 123.207031 251.066406 123.636719 251.585938 123.953125 C 252.109375 124.25 252.707031 124.398438 253.378906 124.398438 Z M 262.953125 127.507812 L 262.953125 107.261719 L 266.621094 107.261719 L 266.621094 127.507812 Z M 276.226562 127.789062 C 274.867188 127.789062 273.632812 127.480469 272.53125 126.863281 C 271.449219 126.230469 270.582031 125.378906 269.929688 124.316406 C 269.292969 123.234375 268.976562 122.03125 268.976562 120.703125 C 268.976562 119.378906 269.292969 118.191406 269.929688 117.148438 C 270.5625 116.082031 271.429688 115.242188 272.53125 114.628906 C 273.632812 113.992188 274.855469 113.675781 276.199219 113.675781 C 277.582031 113.675781 278.8125 113.992188 279.898438 114.628906 C 280.996094 115.242188 281.867188 116.082031 282.5 117.148438 C 283.136719 118.191406 283.453125 119.378906 283.453125 120.703125 C 283.453125 122.03125 283.136719 123.234375 282.5 124.316406 C 281.867188 125.378906 280.996094 126.230469 279.898438 126.863281 C 278.8125 127.480469 277.589844 127.789062 276.226562 127.789062 Z M 276.199219 124.371094 C 276.890625 124.371094 277.496094 124.222656 278.019531 123.925781 C 278.5625 123.605469 278.972656 123.175781 279.253906 122.636719 C 279.550781 122.078125 279.699219 121.441406 279.699219 120.730469 C 279.699219 120.023438 279.550781 119.398438 279.253906 118.855469 C 278.953125 118.316406 278.542969 117.894531 278.019531 117.597656 C 277.496094 117.277344 276.890625 117.121094 276.199219 117.121094 C 275.527344 117.121094 274.929688 117.277344 274.410156 117.597656 C 273.886719 117.894531 273.472656 118.316406 273.175781 118.855469 C 272.878906 119.398438 272.726562 120.023438 272.726562 120.730469 C 272.726562 121.441406 272.878906 122.078125 273.175781 122.636719 C 273.472656 123.175781 273.886719 123.605469 274.410156 123.925781 C 274.929688 124.222656 275.527344 124.371094 276.199219 124.371094 Z M 291.46875 133.5 C 290.035156 133.5 288.761719 133.238281 287.664062 132.71875 C 286.5625 132.210938 285.683594 131.492188 285.03125 130.5625 L 287.355469 128.238281 C 287.878906 128.851562 288.457031 129.320312 289.089844 129.636719 C 289.742188 129.972656 290.527344 130.140625 291.441406 130.140625 C 292.582031 130.140625 293.476562 129.851562 294.128906 129.273438 C 294.804688 128.695312 295.140625 127.890625 295.140625 126.863281 L 295.140625 123.476562 L 295.753906 120.507812 L 295.167969 117.539062 L 295.167969 113.984375 L 298.808594 113.984375 L 298.808594 126.808594 C 298.808594 128.152344 298.488281 129.320312 297.855469 130.308594 C 297.238281 131.316406 296.378906 132.101562 295.277344 132.660156 C 294.175781 133.222656 292.90625 133.5 291.46875 133.5 Z M 291.300781 127.144531 C 290.089844 127.144531 288.996094 126.855469 288.027344 126.277344 C 287.054688 125.679688 286.289062 124.867188 285.730469 123.839844 C 285.1875 122.8125 284.917969 121.664062 284.917969 120.394531 C 284.917969 119.125 285.1875 117.988281 285.730469 116.980469 C 286.289062 115.972656 287.054688 115.179688 288.027344 114.601562 C 288.996094 114.003906 290.089844 113.703125 291.300781 113.703125 C 292.3125 113.703125 293.199219 113.898438 293.960938 114.292969 C 294.746094 114.683594 295.363281 115.226562 295.8125 115.914062 C 296.257812 116.585938 296.5 117.382812 296.539062 118.296875 L 296.539062 122.550781 C 296.5 123.449219 296.25 124.25 295.78125 124.960938 C 295.335938 125.652344 294.71875 126.191406 293.933594 126.585938 C 293.167969 126.957031 292.292969 127.144531 291.300781 127.144531 Z M 292.03125 123.8125 C 292.703125 123.8125 293.28125 123.671875 293.765625 123.390625 C 294.269531 123.09375 294.664062 122.691406 294.941406 122.1875 C 295.222656 121.664062 295.363281 121.078125 295.363281 120.425781 C 295.363281 119.753906 295.222656 119.164062 294.941406 118.660156 C 294.664062 118.15625 294.269531 117.765625 293.765625 117.484375 C 293.28125 117.183594 292.703125 117.035156 292.03125 117.035156 C 291.359375 117.035156 290.769531 117.183594 290.265625 117.484375 C 289.761719 117.765625 289.371094 118.164062 289.089844 118.6875 C 288.808594 119.191406 288.671875 119.769531 288.671875 120.425781 C 288.671875 121.058594 288.808594 121.636719 289.089844 122.160156 C 289.371094 122.664062 289.761719 123.066406 290.265625 123.363281 C 290.769531 123.664062 291.359375 123.8125 292.03125 123.8125 Z M 292.03125 123.8125 " fill-opacity="1" fill-rule="nonzero"/><g clip-path="url(#9467345340)"><path fill="#5e17eb" d="M 147.785156 99.6875 C 156.882812 99.6875 164.257812 107.0625 164.257812 116.160156 L 164.257812 127.6875 C 164.257812 129 163.738281 130.257812 162.8125 131.183594 C 161.882812 132.109375 160.628906 132.628906 159.316406 132.628906 L 148.609375 132.628906 L 148.609375 125.402344 C 148.609375 123.753906 148.710938 122.046875 149.574219 120.644531 C 150.195312 119.636719 151.023438 118.777344 152.003906 118.121094 C 152.984375 117.460938 154.097656 117.023438 155.261719 116.832031 L 155.578125 116.78125 C 155.707031 116.738281 155.820312 116.652344 155.898438 116.542969 C 155.980469 116.429688 156.023438 116.296875 156.023438 116.160156 C 156.023438 116.019531 155.980469 115.886719 155.898438 115.773438 C 155.820312 115.664062 155.707031 115.578125 155.578125 115.535156 L 155.261719 115.484375 C 153.558594 115.207031 151.984375 114.398438 150.765625 113.179688 C 149.546875 111.960938 148.738281 110.386719 148.460938 108.683594 L 148.410156 108.367188 C 148.367188 108.238281 148.28125 108.125 148.171875 108.046875 C 148.058594 107.964844 147.925781 107.921875 147.785156 107.921875 C 147.648438 107.921875 147.515625 107.964844 147.402344 108.046875 C 147.292969 108.125 147.207031 108.238281 147.164062 108.367188 L 147.113281 108.683594 C 146.921875 109.847656 146.484375 110.960938 145.824219 111.941406 C 145.167969 112.921875 144.308594 113.75 143.300781 114.371094 C 141.898438 115.234375 140.191406 115.335938 138.542969 115.335938 L 131.335938 115.335938 C 131.765625 106.621094 138.964844 99.6875 147.785156 99.6875 Z M 147.785156 99.6875 " fill-opacity="1" fill-rule="nonzero"/><path fill="#5e17eb" d="M 131.316406 116.980469 L 138.542969 116.980469 C 140.191406 116.980469 141.898438 117.082031 143.300781 117.949219 C 144.398438 118.625 145.324219 119.546875 146 120.644531 C 146.863281 122.046875 146.964844 123.753906 146.964844 125.402344 L 146.964844 132.628906 L 136.257812 132.628906 C 134.945312 132.628906 133.691406 132.109375 132.761719 131.183594 C 131.835938 130.257812 131.316406 129 131.316406 127.6875 Z M 164.257812 101.335938 C 164.257812 101.769531 164.085938 102.191406 163.777344 102.5 C 163.46875 102.808594 163.046875 102.980469 162.613281 102.980469 C 162.175781 102.980469 161.757812 102.808594 161.445312 102.5 C 161.136719 102.191406 160.964844 101.769531 160.964844 101.335938 C 160.964844 100.898438 161.136719 100.476562 161.445312 100.167969 C 161.757812 99.859375 162.175781 99.6875 162.613281 99.6875 C 163.046875 99.6875 163.46875 99.859375 163.777344 100.167969 C 164.085938 100.476562 164.257812 100.898438 164.257812 101.335938 Z M 164.257812 101.335938 " fill-opacity="1" fill-rule="nonzero"/></g><g fill="#000000" fill-opacity="1"><g transform="translate(171.191785, 125.033013)"><g><path d="M 2.09375 0 L 2.09375 -16.09375 L 8.96875 -16.09375 C 9.957031 -16.09375 10.789062 -15.9375 11.46875 -15.625 C 12.15625 -15.3125 12.675781 -14.867188 13.03125 -14.296875 C 13.382812 -13.722656 13.5625 -13.039062 13.5625 -12.25 C 13.5625 -11.539062 13.390625 -10.914062 13.046875 -10.375 C 12.703125 -9.832031 12.207031 -9.394531 11.5625 -9.0625 L 11.5625 -8.828125 C 12.570312 -8.566406 13.351562 -8.085938 13.90625 -7.390625 C 14.457031 -6.691406 14.734375 -5.835938 14.734375 -4.828125 C 14.734375 -3.285156 14.265625 -2.09375 13.328125 -1.25 C 12.398438 -0.414062 11.023438 0 9.203125 0 Z M 8.296875 -9.671875 C 9.785156 -9.671875 10.53125 -10.34375 10.53125 -11.6875 C 10.53125 -12.363281 10.34375 -12.867188 9.96875 -13.203125 C 9.601562 -13.535156 9.046875 -13.703125 8.296875 -13.703125 L 5.265625 -13.703125 L 5.265625 -9.671875 Z M 8.890625 -2.515625 C 10.640625 -2.515625 11.515625 -3.3125 11.515625 -4.90625 C 11.515625 -6.507812 10.640625 -7.3125 8.890625 -7.3125 L 5.265625 -7.3125 L 5.265625 -2.515625 Z M 8.890625 -2.515625 "/></g></g></g><g fill="#000000" fill-opacity="1"><g transform="translate(186.926781, 125.033013)"><g><path d="M 5.046875 0.234375 C 3.953125 0.234375 3.113281 -0.0625 2.53125 -0.65625 C 1.957031 -1.25 1.671875 -2.144531 1.671875 -3.34375 L 1.671875 -17.015625 L 4.71875 -17.015625 L 4.71875 -3.46875 C 4.71875 -2.726562 5.023438 -2.359375 5.640625 -2.359375 C 5.816406 -2.359375 6.003906 -2.382812 6.203125 -2.4375 L 6.359375 -2.40625 L 6.640625 -0.0625 C 6.472656 0.03125 6.25 0.101562 5.96875 0.15625 C 5.6875 0.207031 5.378906 0.234375 5.046875 0.234375 Z M 5.046875 0.234375 "/></g></g></g><g fill="#000000" fill-opacity="1"><g transform="translate(193.902995, 125.033013)"><g><path d="M 7.0625 0.234375 C 5.863281 0.234375 4.816406 -0.0078125 3.921875 -0.5 C 3.023438 -0.988281 2.328125 -1.703125 1.828125 -2.640625 C 1.335938 -3.585938 1.09375 -4.726562 1.09375 -6.0625 C 1.09375 -7.394531 1.335938 -8.535156 1.828125 -9.484375 C 2.328125 -10.429688 3.023438 -11.148438 3.921875 -11.640625 C 4.816406 -12.128906 5.863281 -12.375 7.0625 -12.375 C 8.25 -12.375 9.289062 -12.128906 10.1875 -11.640625 C 11.082031 -11.148438 11.78125 -10.429688 12.28125 -9.484375 C 12.78125 -8.535156 13.03125 -7.394531 13.03125 -6.0625 C 13.03125 -4.726562 12.78125 -3.585938 12.28125 -2.640625 C 11.78125 -1.703125 11.082031 -0.988281 10.1875 -0.5 C 9.289062 -0.0078125 8.25 0.234375 7.0625 0.234375 Z M 7.0625 -2.359375 C 8.945312 -2.359375 9.890625 -3.59375 9.890625 -6.0625 C 9.890625 -7.351562 9.644531 -8.296875 9.15625 -8.890625 C 8.675781 -9.484375 7.976562 -9.78125 7.0625 -9.78125 C 5.175781 -9.78125 4.234375 -8.539062 4.234375 -6.0625 C 4.234375 -3.59375 5.175781 -2.359375 7.0625 -2.359375 Z M 7.0625 -2.359375 "/></g></g></g><g fill="#000000" fill-opacity="1"><g transform="translate(207.921412, 125.033013)"><g><path d="M 6.296875 5.15625 C 4.296875 5.15625 2.816406 4.859375 1.859375 4.265625 C 0.898438 3.679688 0.421875 2.863281 0.421875 1.8125 C 0.421875 1.175781 0.625 0.65625 1.03125 0.25 C 1.445312 -0.15625 2.035156 -0.429688 2.796875 -0.578125 L 2.796875 -0.796875 C 2.390625 -1.046875 2.09375 -1.320312 1.90625 -1.625 C 1.726562 -1.9375 1.640625 -2.296875 1.640625 -2.703125 C 1.640625 -3.671875 2.273438 -4.328125 3.546875 -4.671875 L 3.546875 -4.90625 C 2.890625 -5.269531 2.394531 -5.726562 2.0625 -6.28125 C 1.738281 -6.84375 1.578125 -7.515625 1.578125 -8.296875 C 1.578125 -9.109375 1.757812 -9.816406 2.125 -10.421875 C 2.5 -11.035156 3.039062 -11.515625 3.75 -11.859375 C 4.46875 -12.203125 5.328125 -12.375 6.328125 -12.375 C 7.335938 -12.375 8.144531 -12.195312 8.75 -11.84375 C 9.125 -12.382812 9.34375 -13.015625 9.40625 -13.734375 L 9.640625 -13.875 L 11.828125 -13.328125 C 11.753906 -12.753906 11.582031 -12.269531 11.3125 -11.875 C 11.039062 -11.476562 10.617188 -11.128906 10.046875 -10.828125 L 10.046875 -10.578125 C 10.734375 -9.972656 11.078125 -9.132812 11.078125 -8.0625 C 11.078125 -7.3125 10.890625 -6.640625 10.515625 -6.046875 C 10.140625 -5.453125 9.59375 -4.984375 8.875 -4.640625 C 8.164062 -4.296875 7.316406 -4.125 6.328125 -4.125 L 5.875 -4.125 C 5.570312 -4.144531 5.363281 -4.15625 5.25 -4.15625 C 4.96875 -4.15625 4.75 -4.078125 4.59375 -3.921875 C 4.4375 -3.773438 4.359375 -3.582031 4.359375 -3.34375 C 4.359375 -3.09375 4.457031 -2.894531 4.65625 -2.75 C 4.863281 -2.601562 5.171875 -2.523438 5.578125 -2.515625 L 8.296875 -2.40625 C 10.972656 -2.332031 12.3125 -1.175781 12.3125 1.0625 C 12.3125 1.84375 12.113281 2.539062 11.71875 3.15625 C 11.320312 3.769531 10.675781 4.253906 9.78125 4.609375 C 8.882812 4.972656 7.722656 5.15625 6.296875 5.15625 Z M 6.328125 -6.25 C 6.921875 -6.25 7.378906 -6.421875 7.703125 -6.765625 C 8.035156 -7.109375 8.203125 -7.601562 8.203125 -8.25 C 8.203125 -8.882812 8.035156 -9.375 7.703125 -9.71875 C 7.378906 -10.0625 6.921875 -10.234375 6.328125 -10.234375 C 5.734375 -10.234375 5.273438 -10.0625 4.953125 -9.71875 C 4.628906 -9.375 4.46875 -8.882812 4.46875 -8.25 C 4.46875 -7.601562 4.628906 -7.109375 4.953125 -6.765625 C 5.273438 -6.421875 5.734375 -6.25 6.328125 -6.25 Z M 6.296875 2.9375 C 7.335938 2.9375 8.09375 2.789062 8.5625 2.5 C 9.039062 2.207031 9.28125 1.828125 9.28125 1.359375 C 9.28125 0.972656 9.15625 0.691406 8.90625 0.515625 C 8.664062 0.335938 8.285156 0.238281 7.765625 0.21875 L 5.359375 0.109375 C 5.273438 0.109375 5.195312 0.101562 5.125 0.09375 C 5.0625 0.09375 5 0.09375 4.9375 0.09375 C 4.414062 0.09375 4.019531 0.203125 3.75 0.421875 C 3.488281 0.640625 3.359375 0.941406 3.359375 1.328125 C 3.359375 1.847656 3.601562 2.242188 4.09375 2.515625 C 4.582031 2.796875 5.316406 2.9375 6.296875 2.9375 Z M 6.296875 2.9375 "/></g></g></g><g fill="#000000" fill-opacity="1"><g transform="translate(220.542424, 125.033013)"><g><path d="M 7.140625 0.234375 C 6.015625 0.234375 5.015625 0.0976562 4.140625 -0.171875 C 3.273438 -0.453125 2.550781 -0.816406 1.96875 -1.265625 C 1.394531 -1.710938 0.957031 -2.203125 0.65625 -2.734375 L 2.40625 -4.875 L 2.671875 -4.875 C 3.160156 -4.15625 3.773438 -3.582031 4.515625 -3.15625 C 5.265625 -2.726562 6.140625 -2.515625 7.140625 -2.515625 C 7.984375 -2.515625 8.617188 -2.691406 9.046875 -3.046875 C 9.484375 -3.410156 9.703125 -3.910156 9.703125 -4.546875 C 9.703125 -4.929688 9.632812 -5.25 9.5 -5.5 C 9.363281 -5.757812 9.132812 -5.976562 8.8125 -6.15625 C 8.488281 -6.34375 8.050781 -6.503906 7.5 -6.640625 L 5.421875 -7.109375 C 3.984375 -7.441406 2.910156 -7.988281 2.203125 -8.75 C 1.492188 -9.519531 1.140625 -10.519531 1.140625 -11.75 C 1.140625 -12.65625 1.363281 -13.453125 1.8125 -14.140625 C 2.269531 -14.835938 2.929688 -15.375 3.796875 -15.75 C 4.671875 -16.132812 5.710938 -16.328125 6.921875 -16.328125 C 8.160156 -16.328125 9.222656 -16.160156 10.109375 -15.828125 C 10.992188 -15.503906 11.742188 -15.003906 12.359375 -14.328125 L 10.78125 -12.171875 L 10.5 -12.171875 C 10.039062 -12.648438 9.519531 -13.007812 8.9375 -13.25 C 8.351562 -13.488281 7.679688 -13.609375 6.921875 -13.609375 C 6.046875 -13.609375 5.378906 -13.453125 4.921875 -13.140625 C 4.472656 -12.835938 4.25 -12.414062 4.25 -11.875 C 4.25 -11.363281 4.40625 -10.957031 4.71875 -10.65625 C 5.039062 -10.351562 5.597656 -10.117188 6.390625 -9.953125 L 8.5 -9.515625 C 10.0625 -9.179688 11.191406 -8.617188 11.890625 -7.828125 C 12.597656 -7.046875 12.953125 -6.019531 12.953125 -4.75 C 12.953125 -3.738281 12.734375 -2.859375 12.296875 -2.109375 C 11.867188 -1.367188 11.21875 -0.789062 10.34375 -0.375 C 9.46875 0.03125 8.398438 0.234375 7.140625 0.234375 Z M 7.140625 0.234375 "/></g></g></g><g fill="#000000" fill-opacity="1"><g transform="translate(234.362812, 125.033013)"><g><path d="M 1.75 4.921875 L 1.75 -12.140625 L 4.796875 -12.140625 L 4.796875 -10.5625 L 5.03125 -10.515625 C 5.394531 -11.128906 5.875 -11.59375 6.46875 -11.90625 C 7.070312 -12.21875 7.78125 -12.375 8.59375 -12.375 C 9.5625 -12.375 10.410156 -12.140625 11.140625 -11.671875 C 11.878906 -11.210938 12.453125 -10.507812 12.859375 -9.5625 C 13.265625 -8.625 13.46875 -7.457031 13.46875 -6.0625 C 13.46875 -4.675781 13.25 -3.515625 12.8125 -2.578125 C 12.382812 -1.640625 11.789062 -0.9375 11.03125 -0.46875 C 10.269531 0 9.390625 0.234375 8.390625 0.234375 C 7.628906 0.234375 6.972656 0.109375 6.421875 -0.140625 C 5.878906 -0.398438 5.414062 -0.796875 5.03125 -1.328125 L 4.796875 -1.28125 L 4.796875 4.921875 Z M 7.546875 -2.359375 C 8.453125 -2.359375 9.140625 -2.65625 9.609375 -3.25 C 10.078125 -3.84375 10.3125 -4.78125 10.3125 -6.0625 C 10.3125 -7.351562 10.078125 -8.296875 9.609375 -8.890625 C 9.140625 -9.484375 8.453125 -9.78125 7.546875 -9.78125 C 6.691406 -9.78125 6.015625 -9.472656 5.515625 -8.859375 C 5.015625 -8.242188 4.765625 -7.3125 4.765625 -6.0625 C 4.765625 -4.820312 5.015625 -3.894531 5.515625 -3.28125 C 6.015625 -2.664062 6.691406 -2.359375 7.546875 -2.359375 Z M 7.546875 -2.359375 "/></g></g></g><g fill="#000000" fill-opacity="1"><g transform="translate(248.898433, 125.033013)"><g><path d="M 1.75 0 L 1.75 -17.015625 L 4.796875 -17.015625 L 4.796875 -10.5625 L 5.03125 -10.515625 C 5.4375 -11.109375 5.929688 -11.566406 6.515625 -11.890625 C 7.097656 -12.210938 7.804688 -12.375 8.640625 -12.375 C 11.316406 -12.375 12.65625 -10.851562 12.65625 -7.8125 L 12.65625 0 L 9.609375 0 L 9.609375 -7.4375 C 9.609375 -8.257812 9.441406 -8.859375 9.109375 -9.234375 C 8.785156 -9.609375 8.273438 -9.796875 7.578125 -9.796875 C 6.722656 -9.796875 6.046875 -9.507812 5.546875 -8.9375 C 5.046875 -8.375 4.796875 -7.488281 4.796875 -6.28125 L 4.796875 0 Z M 1.75 0 "/></g></g></g><g fill="#000000" fill-opacity="1"><g transform="translate(263.114947, 125.033013)"><g><path d="M 12 -5.390625 L 4.1875 -5.390625 C 4.28125 -4.328125 4.582031 -3.554688 5.09375 -3.078125 C 5.613281 -2.597656 6.316406 -2.359375 7.203125 -2.359375 C 7.898438 -2.359375 8.460938 -2.488281 8.890625 -2.75 C 9.328125 -3.007812 9.675781 -3.40625 9.9375 -3.9375 L 10.171875 -3.9375 L 12.203125 -2.625 C 11.804688 -1.78125 11.207031 -1.09375 10.40625 -0.5625 C 9.601562 -0.03125 8.535156 0.234375 7.203125 0.234375 C 5.941406 0.234375 4.851562 -0.00390625 3.9375 -0.484375 C 3.03125 -0.960938 2.328125 -1.671875 1.828125 -2.609375 C 1.335938 -3.554688 1.09375 -4.707031 1.09375 -6.0625 C 1.09375 -7.445312 1.351562 -8.609375 1.875 -9.546875 C 2.394531 -10.492188 3.097656 -11.203125 3.984375 -11.671875 C 4.867188 -12.140625 5.867188 -12.375 6.984375 -12.375 C 8.703125 -12.375 10.015625 -11.914062 10.921875 -11 C 11.835938 -10.09375 12.296875 -8.757812 12.296875 -7 C 12.296875 -6.363281 12.273438 -5.867188 12.234375 -5.515625 Z M 9.375 -7.359375 C 9.34375 -8.273438 9.128906 -8.941406 8.734375 -9.359375 C 8.335938 -9.785156 7.753906 -10 6.984375 -10 C 5.441406 -10 4.535156 -9.117188 4.265625 -7.359375 Z M 9.375 -7.359375 "/></g></g></g><g fill="#000000" fill-opacity="1"><g transform="translate(276.308141, 125.033013)"><g><path d="M 1.75 0 L 1.75 -12.140625 L 4.71875 -12.140625 L 4.71875 -10.34375 L 4.9375 -10.296875 C 5.238281 -10.972656 5.625 -11.46875 6.09375 -11.78125 C 6.570312 -12.09375 7.15625 -12.25 7.84375 -12.25 C 8.53125 -12.25 9.050781 -12.132812 9.40625 -11.90625 L 8.890625 -9.265625 L 8.671875 -9.21875 C 8.460938 -9.300781 8.265625 -9.359375 8.078125 -9.390625 C 7.898438 -9.429688 7.679688 -9.453125 7.421875 -9.453125 C 6.566406 -9.453125 5.914062 -9.148438 5.46875 -8.546875 C 5.019531 -7.953125 4.796875 -7 4.796875 -5.6875 L 4.796875 0 Z M 1.75 0 "/></g></g></g><g fill="#000000" fill-opacity="1"><g transform="translate(285.506925, 125.033013)"><g><path d="M 12 -5.390625 L 4.1875 -5.390625 C 4.28125 -4.328125 4.582031 -3.554688 5.09375 -3.078125 C 5.613281 -2.597656 6.316406 -2.359375 7.203125 -2.359375 C 7.898438 -2.359375 8.460938 -2.488281 8.890625 -2.75 C 9.328125 -3.007812 9.675781 -3.40625 9.9375 -3.9375 L 10.171875 -3.9375 L 12.203125 -2.625 C 11.804688 -1.78125 11.207031 -1.09375 10.40625 -0.5625 C 9.601562 -0.03125 8.535156 0.234375 7.203125 0.234375 C 5.941406 0.234375 4.851562 -0.00390625 3.9375 -0.484375 C 3.03125 -0.960938 2.328125 -1.671875 1.828125 -2.609375 C 1.335938 -3.554688 1.09375 -4.707031 1.09375 -6.0625 C 1.09375 -7.445312 1.351562 -8.609375 1.875 -9.546875 C 2.394531 -10.492188 3.097656 -11.203125 3.984375 -11.671875 C 4.867188 -12.140625 5.867188 -12.375 6.984375 -12.375 C 8.703125 -12.375 10.015625 -11.914062 10.921875 -11 C 11.835938 -10.09375 12.296875 -8.757812 12.296875 -7 C 12.296875 -6.363281 12.273438 -5.867188 12.234375 -5.515625 Z M 9.375 -7.359375 C 9.34375 -8.273438 9.128906 -8.941406 8.734375 -9.359375 C 8.335938 -9.785156 7.753906 -10 6.984375 -10 C 5.441406 -10 4.535156 -9.117188 4.265625 -7.359375 Z M 9.375 -7.359375 "/></g></g></g></svg>